<?xml version="1.0" standalone="no"?>
<!DOCTYPE svg PUBLIC "-//W3C//DTD SVG 20010904//EN"
 "http://www.w3.org/TR/2001/REC-SVG-20010904/DTD/svg10.dtd">
<svg version="1.0" xmlns="http://www.w3.org/2000/svg"
 width="268.000000pt" height="268.000000pt" viewBox="0 0 268.000000 268.000000"
 preserveAspectRatio="xMidYMid meet">
<metadata>
Created by potrace 1.14, written by Peter Selinger 2001-2017
</metadata>
<g transform="translate(0.000000,268.000000) scale(0.100000,-0.100000)"
fill="#000000" stroke="none">
<path d="M1218 2675 c-2 -1 -28 -6 -58 -9 -332 -38 -671 -235 -883 -513 -124
-162 -226 -391 -253 -568 -3 -22 -9 -59 -14 -83 -14 -80 -4 -320 19 -429 117
-557 550 -967 1114 -1057 82 -13 323 -14 392 -2 220 40 372 99 545 212 214
141 390 352 493 594 77 182 106 338 102 555 -10 524 -329 994 -815 1198 -174
73 -294 97 -497 102 -78 2 -143 2 -145 0z m327 -174 c210 -35 436 -149 601
-304 144 -135 230 -270 314 -492 37 -96 57 -241 54 -384 -2 -111 -6 -151 -29
-263 -9 -47 -56 -169 -91 -242 -55 -110 -122 -204 -216 -301 -76 -79 -87 -87
-94 -70 -12 34 -43 99 -56 117 -11 16 -2 28 75 103 49 47 93 85 98 85 5 0 17
15 26 34 15 32 15 37 0 60 -14 21 -15 36 -8 87 19 142 -1 253 -65 360 -81 136
-207 200 -393 201 -128 1 -249 -56 -342 -160 -63 -70 -84 -109 -88 -162 -1
-24 -10 -58 -18 -74 -24 -45 -19 -118 10 -169 24 -44 24 -45 6 -61 -43 -36 -6
-131 53 -139 18 -2 38 -18 62 -49 40 -52 85 -88 111 -88 14 0 12 -5 -10 -27
-58 -59 -90 -163 -94 -307 -2 -60 -20 -6 -91 264 -96 370 -83 335 -133 347
-153 39 -172 47 -175 75 -2 19 2 28 18 33 11 4 41 26 66 50 24 24 58 46 74 50
41 9 45 20 19 56 -25 35 -16 49 33 49 36 0 40 10 24 63 l-14 45 59 32 c33 17
57 35 54 40 -3 5 -26 24 -50 41 -25 18 -45 36 -45 40 0 4 17 13 38 19 43 14
135 65 150 83 8 10 -7 20 -64 46 -41 18 -74 36 -74 40 1 3 32 40 70 81 l69 75
-62 12 c-34 6 -74 12 -89 12 -15 1 -30 5 -33 11 -3 5 19 53 50 106 31 53 54
98 53 100 -2 1 -45 -11 -97 -28 -75 -24 -95 -27 -102 -16 -10 16 -22 107 -23
176 0 52 -1 53 -26 47 -34 -8 -94 -49 -150 -101 l-47 -44 -36 53 c-20 28 -54
70 -76 91 -45 44 -46 43 -55 -41 -6 -61 -44 -156 -60 -149 -83 37 -136 56
-158 56 l-27 0 18 -43 c26 -61 47 -156 34 -158 -5 0 -15 -2 -24 -4 -9 -1 -59
-6 -110 -10 -52 -4 -97 -9 -102 -12 -4 -2 12 -26 35 -52 24 -26 55 -70 70 -98
l28 -50 -85 -60 -85 -60 62 -23 c34 -12 79 -38 100 -59 l40 -36 -60 -57 -59
-57 73 -32 c41 -17 74 -37 74 -43 0 -6 -7 -36 -15 -66 -8 -30 -15 -56 -15 -57
0 -1 28 -3 62 -5 l62 -3 4 -40 c2 -22 5 -41 7 -43 1 -2 18 3 36 11 30 12 36
12 52 -4 10 -9 38 -22 62 -28 40 -10 43 -13 36 -37 -6 -24 -20 -32 -114 -64
-59 -20 -109 -39 -112 -42 -7 -6 -87 -317 -88 -337 0 -8 -26 14 -58 48 -151
162 -251 371 -295 616 -10 58 -12 269 -3 318 4 23 10 62 14 86 9 63 51 192 88
270 54 116 138 233 237 332 178 178 393 290 640 333 88 15 296 13 395 -3z"/>
</g>
</svg>
